<mxfile host="app.diagrams.net" modified="2021-06-22T02:24:16.152Z" agent="5.0 (Windows NT 10.0; Win64; x64) AppleWebKit/537.36 (KHTML, like Gecko) Chrome/91.0.4472.106 Safari/537.36" etag="S5E0Djt73rHrsWKZYcGz" version="14.8.0" type="github">
  <diagram id="C5RBs43oDa-KdzZeNtuy" name="Page-1">
    <mxGraphModel dx="1422" dy="794" grid="1" gridSize="10" guides="1" tooltips="1" connect="1" arrows="1" fold="1" page="1" pageScale="1" pageWidth="827" pageHeight="1169" math="0" shadow="0">
      <root>
        <mxCell id="WIyWlLk6GJQsqaUBKTNV-0" />
        <mxCell id="WIyWlLk6GJQsqaUBKTNV-1" parent="WIyWlLk6GJQsqaUBKTNV-0" />
        <mxCell id="b6Hh9o6ukeWKrNodZJ5I-0" value="Actor" style="shape=umlActor;verticalLabelPosition=bottom;verticalAlign=top;html=1;outlineConnect=0;" vertex="1" parent="WIyWlLk6GJQsqaUBKTNV-1">
          <mxGeometry x="40" y="430" width="30" height="60" as="geometry" />
        </mxCell>
        <mxCell id="b6Hh9o6ukeWKrNodZJ5I-1" value="" style="endArrow=none;html=1;" edge="1" parent="WIyWlLk6GJQsqaUBKTNV-1" target="b6Hh9o6ukeWKrNodZJ5I-2">
          <mxGeometry width="50" height="50" relative="1" as="geometry">
            <mxPoint x="60" y="460" as="sourcePoint" />
            <mxPoint x="140" y="460" as="targetPoint" />
            <Array as="points">
              <mxPoint x="140" y="460" />
            </Array>
          </mxGeometry>
        </mxCell>
        <mxCell id="b6Hh9o6ukeWKrNodZJ5I-2" value="index.html" style="ellipse;whiteSpace=wrap;html=1;" vertex="1" parent="WIyWlLk6GJQsqaUBKTNV-1">
          <mxGeometry x="140" y="420" width="120" height="80" as="geometry" />
        </mxCell>
        <mxCell id="b6Hh9o6ukeWKrNodZJ5I-3" value="" style="endArrow=none;html=1;" edge="1" parent="WIyWlLk6GJQsqaUBKTNV-1" target="b6Hh9o6ukeWKrNodZJ5I-4">
          <mxGeometry width="50" height="50" relative="1" as="geometry">
            <mxPoint x="240" y="430" as="sourcePoint" />
            <mxPoint x="360" y="350" as="targetPoint" />
          </mxGeometry>
        </mxCell>
        <mxCell id="b6Hh9o6ukeWKrNodZJ5I-4" value="mercurio" style="ellipse;whiteSpace=wrap;html=1;" vertex="1" parent="WIyWlLk6GJQsqaUBKTNV-1">
          <mxGeometry x="400" y="320" width="120" height="70" as="geometry" />
        </mxCell>
        <mxCell id="b6Hh9o6ukeWKrNodZJ5I-5" value="" style="endArrow=none;html=1;startArrow=none;" edge="1" parent="WIyWlLk6GJQsqaUBKTNV-1" source="b6Hh9o6ukeWKrNodZJ5I-6">
          <mxGeometry width="50" height="50" relative="1" as="geometry">
            <mxPoint x="260" y="470" as="sourcePoint" />
            <mxPoint x="262" y="460" as="targetPoint" />
          </mxGeometry>
        </mxCell>
        <mxCell id="b6Hh9o6ukeWKrNodZJ5I-6" value="terra" style="ellipse;whiteSpace=wrap;html=1;" vertex="1" parent="WIyWlLk6GJQsqaUBKTNV-1">
          <mxGeometry x="400" y="430" width="120" height="70" as="geometry" />
        </mxCell>
        <mxCell id="b6Hh9o6ukeWKrNodZJ5I-8" value="" style="endArrow=none;html=1;entryX=0;entryY=0.5;entryDx=0;entryDy=0;" edge="1" parent="WIyWlLk6GJQsqaUBKTNV-1" target="b6Hh9o6ukeWKrNodZJ5I-9">
          <mxGeometry width="50" height="50" relative="1" as="geometry">
            <mxPoint x="240" y="490" as="sourcePoint" />
            <mxPoint x="310" y="525" as="targetPoint" />
          </mxGeometry>
        </mxCell>
        <mxCell id="b6Hh9o6ukeWKrNodZJ5I-9" value="venus" style="ellipse;whiteSpace=wrap;html=1;" vertex="1" parent="WIyWlLk6GJQsqaUBKTNV-1">
          <mxGeometry x="400" y="540" width="120" height="70" as="geometry" />
        </mxCell>
        <mxCell id="b6Hh9o6ukeWKrNodZJ5I-10" value="index.html" style="ellipse;whiteSpace=wrap;html=1;" vertex="1" parent="WIyWlLk6GJQsqaUBKTNV-1">
          <mxGeometry x="140" y="420" width="120" height="80" as="geometry" />
        </mxCell>
        <mxCell id="b6Hh9o6ukeWKrNodZJ5I-12" value="" style="endArrow=none;html=1;entryX=0;entryY=0.75;entryDx=0;entryDy=0;exitX=1;exitY=0.5;exitDx=0;exitDy=0;" edge="1" parent="WIyWlLk6GJQsqaUBKTNV-1" source="b6Hh9o6ukeWKrNodZJ5I-9" target="b6Hh9o6ukeWKrNodZJ5I-17">
          <mxGeometry width="50" height="50" relative="1" as="geometry">
            <mxPoint x="530" y="585" as="sourcePoint" />
            <mxPoint x="667.5735931288073" y="488.2842712474617" as="targetPoint" />
          </mxGeometry>
        </mxCell>
        <mxCell id="b6Hh9o6ukeWKrNodZJ5I-17" value="&lt;span&gt;informações e imagens&amp;nbsp;sobre os planetas&lt;/span&gt;" style="whiteSpace=wrap;html=1;aspect=fixed;" vertex="1" parent="WIyWlLk6GJQsqaUBKTNV-1">
          <mxGeometry x="690" y="415" width="90" height="90" as="geometry" />
        </mxCell>
        <mxCell id="b6Hh9o6ukeWKrNodZJ5I-19" value="" style="endArrow=none;html=1;entryX=0;entryY=0.556;entryDx=0;entryDy=0;entryPerimeter=0;exitX=1;exitY=0.5;exitDx=0;exitDy=0;" edge="1" parent="WIyWlLk6GJQsqaUBKTNV-1" source="b6Hh9o6ukeWKrNodZJ5I-6" target="b6Hh9o6ukeWKrNodZJ5I-17">
          <mxGeometry width="50" height="50" relative="1" as="geometry">
            <mxPoint x="520" y="470" as="sourcePoint" />
            <mxPoint x="570" y="420" as="targetPoint" />
          </mxGeometry>
        </mxCell>
        <mxCell id="b6Hh9o6ukeWKrNodZJ5I-21" value="" style="endArrow=none;html=1;exitX=0.933;exitY=0.757;exitDx=0;exitDy=0;exitPerimeter=0;entryX=0;entryY=0.25;entryDx=0;entryDy=0;" edge="1" parent="WIyWlLk6GJQsqaUBKTNV-1" source="b6Hh9o6ukeWKrNodZJ5I-4" target="b6Hh9o6ukeWKrNodZJ5I-17">
          <mxGeometry width="50" height="50" relative="1" as="geometry">
            <mxPoint x="540" y="420" as="sourcePoint" />
            <mxPoint x="660" y="440" as="targetPoint" />
          </mxGeometry>
        </mxCell>
      </root>
    </mxGraphModel>
  </diagram>
</mxfile>
